<mxfile host="65bd71144e">
    <diagram name="Modeleur - Architecture des sorties" id="modeleur-outputs">
        <mxGraphModel dx="2720" dy="1513" grid="1" gridSize="10" guides="1" tooltips="1" connect="1" arrows="1" fold="1" page="1" pageScale="1" pageWidth="827" pageHeight="1169" math="0" shadow="0">
            <root>
                <mxCell id="0"/>
                <mxCell id="1" parent="0"/>
                <mxCell id="6" value="Sorties Intermédiaires&#xa;(Intermediary Outputs)" style="shape=rectangle;whiteSpace=wrap;html=1;fillColor=#dae8fc;" parent="1" vertex="1">
                    <mxGeometry x="410" y="330" width="280" height="130" as="geometry"/>
                </mxCell>
                <mxCell id="8" value="Sorties Métiers&lt;br&gt;(Business View)" style="shape=rectangle;whiteSpace=wrap;html=1;fillColor=#d5e8d4;" parent="1" vertex="1">
                    <mxGeometry x="900" y="340" width="210" height="110" as="geometry"/>
                </mxCell>
                <mxCell id="9" style="endArrow=block;html=1;entryX=0;entryY=0.5;entryDx=0;entryDy=0;fontStyle=1;strokeColor=default;strokeWidth=4;" parent="1" source="6" target="8" edge="1">
                    <mxGeometry relative="1" as="geometry">
                        <mxPoint x="870" y="395" as="targetPoint"/>
                    </mxGeometry>
                </mxCell>
                <mxCell id="48" style="edgeStyle=none;html=1;entryX=0.802;entryY=0.012;entryDx=0;entryDy=0;fontFamily=Helvetica;fontSize=12;fontColor=default;entryPerimeter=0;" parent="1" source="10" target="35" edge="1">
                    <mxGeometry relative="1" as="geometry"/>
                </mxCell>
                <mxCell id="10" value="config.yml&lt;div&gt;-------------------------&lt;/div&gt;&lt;div style=&quot;text-align: left;&quot;&gt;#output&lt;/div&gt;&lt;div style=&quot;text-align: left;&quot;&gt;bool: fix or dynamic&lt;/div&gt;" style="shape=document;whiteSpace=wrap;html=1;verticalAlign=top;" parent="1" vertex="1">
                    <mxGeometry x="710" y="-550" width="125" height="160" as="geometry"/>
                </mxCell>
                <mxCell id="13" value="&lt;b&gt;&lt;font style=&quot;font-size: 17px;&quot;&gt;COMPONENTS_TABLE&lt;/font&gt;&lt;/b&gt;&lt;div&gt;-----------------------------------&lt;/div&gt;&lt;div&gt;&lt;ul&gt;&lt;li style=&quot;text-align: left;&quot;&gt;&lt;b style=&quot;color: black; background-color: transparent; font-family: Aptos, Aptos_EmbeddedFont, Aptos_MSFontService, Calibri, Helvetica, sans-serif; font-size: 12pt;&quot; data-olk-copy-source=&quot;MessageBody&quot;&gt;Component_ID&lt;/b&gt;&lt;span style=&quot;color: black; background-color: transparent; font-family: Aptos, Aptos_EmbeddedFont, Aptos_MSFontService, Calibri, Helvetica, sans-serif; font-size: 12pt;&quot;&gt;&amp;nbsp;&lt;/span&gt;&lt;/li&gt;&lt;li style=&quot;text-align: left;&quot;&gt;&lt;b style=&quot;color: black; background-color: transparent; font-family: Aptos, Aptos_EmbeddedFont, Aptos_MSFontService, Calibri, Helvetica, sans-serif; font-size: 12pt;&quot;&gt;model_ID&lt;/b&gt;&lt;/li&gt;&lt;li style=&quot;text-align: left;&quot;&gt;&lt;b style=&quot;color: black; background-color: transparent; font-family: Aptos, Aptos_EmbeddedFont, Aptos_MSFontService, Calibri, Helvetica, sans-serif; font-size: 12pt;&quot;&gt;related_area_set&amp;nbsp;&lt;/b&gt;&lt;/li&gt;&lt;li style=&quot;text-align: left;&quot;&gt;&lt;b style=&quot;color: black; background-color: transparent; font-family: Aptos, Aptos_EmbeddedFont, Aptos_MSFontService, Calibri, Helvetica, sans-serif; font-size: 12pt;&quot;&gt;tags&amp;nbsp;&lt;/b&gt;&lt;/li&gt;&lt;/ul&gt;&lt;/div&gt;" style="shape=cube;whiteSpace=wrap;html=1;fillColor=#fff2cc;size=10;verticalAlign=top;spacingTop=9;" parent="1" vertex="1">
                    <mxGeometry x="680" y="560" width="240" height="180" as="geometry"/>
                </mxCell>
                <mxCell id="14" style="endArrow=block;entryX=0;entryY=0;entryDx=115;entryDy=0;entryPerimeter=0;" parent="1" source="6" target="50" edge="1">
                    <mxGeometry relative="1" as="geometry">
                        <mxPoint x="1010" y="556.9318181818185" as="targetPoint"/>
                    </mxGeometry>
                </mxCell>
                <mxCell id="15" style="endArrow=block;" parent="1" source="6" target="13" edge="1">
                    <mxGeometry relative="1" as="geometry"/>
                </mxCell>
                <mxCell id="148" style="edgeStyle=none;html=1;exitX=0.5;exitY=1;exitDx=0;exitDy=0;entryX=0;entryY=0.5;entryDx=0;entryDy=0;fontFamily=Helvetica;fontSize=12;fontColor=default;" parent="1" source="16" target="126" edge="1">
                    <mxGeometry relative="1" as="geometry">
                        <Array as="points">
                            <mxPoint x="180" y="1200"/>
                        </Array>
                    </mxGeometry>
                </mxCell>
                <mxCell id="16" value="Export CSV&lt;br&gt;(simulation_table_x.csv)" style="shape=parallelogram;whiteSpace=wrap;html=1;" parent="1" vertex="1">
                    <mxGeometry x="200" y="930" width="180" height="60" as="geometry"/>
                </mxCell>
                <mxCell id="17" style="endArrow=block;" parent="1" source="50" target="16" edge="1">
                    <mxGeometry relative="1" as="geometry">
                        <mxPoint x="446.2984615384614" y="650" as="sourcePoint"/>
                    </mxGeometry>
                </mxCell>
                <mxCell id="47" style="edgeStyle=none;html=1;exitX=0.5;exitY=1;exitDx=0;exitDy=0;fontFamily=Helvetica;fontSize=12;fontColor=default;strokeWidth=4;" parent="1" source="35" target="6" edge="1">
                    <mxGeometry relative="1" as="geometry"/>
                </mxCell>
                <mxCell id="35" value="&lt;font style=&quot;font-size: 80px;&quot;&gt;Modeleur (Gems)&lt;/font&gt;" style="shape=rectangle;whiteSpace=wrap;html=1;fillColor=#f8cecc;strokeColor=#b85450;" parent="1" vertex="1">
                    <mxGeometry x="300" y="-300" width="470" height="280" as="geometry"/>
                </mxCell>
                <mxCell id="38" style="edgeStyle=none;html=1;exitX=0.393;exitY=0.84;exitDx=0;exitDy=0;exitPerimeter=0;" parent="1" source="37" target="35" edge="1">
                    <mxGeometry relative="1" as="geometry">
                        <mxPoint x="430" y="-540" as="sourcePoint"/>
                    </mxGeometry>
                </mxCell>
                <mxCell id="37" value="&lt;div style=&quot;text-align: center;&quot;&gt;&lt;span style=&quot;background-color: transparent; color: rgb(0, 0, 0);&quot;&gt;Library.yml&lt;/span&gt;&lt;/div&gt;&lt;div style=&quot;text-align: center;&quot;&gt;-------------------------------------------------&lt;/div&gt;&lt;div&gt;..... old ....&lt;/div&gt;&lt;div&gt;compe:&lt;/div&gt;&lt;div&gt;&lt;span style=&quot;white-space: pre;&quot;&gt;&#x9;&lt;/span&gt;...old...&lt;/div&gt;&lt;div&gt;&lt;span style=&quot;white-space: pre;&quot;&gt;&#x9;&lt;/span&gt;taxonomy-group: string&lt;/div&gt;&lt;div&gt;&lt;br&gt;&lt;/div&gt;&lt;div&gt;extra-outputs:&lt;/div&gt;&lt;div&gt;&lt;span style=&quot;white-space: pre;&quot;&gt;&#x9;&lt;/span&gt;id:string&lt;/div&gt;&lt;div&gt;&lt;span style=&quot;white-space: pre;&quot;&gt;&#x9;&lt;/span&gt;expression :&lt;/div&gt;&lt;div&gt;&lt;font style=&quot;font-size: 10px;&quot;&gt;&lt;span style=&quot;white-space: pre;&quot;&gt;&#x9;&lt;/span&gt;&amp;nbsp;&lt;span style=&quot;white-space: pre;&quot;&gt;&#x9;&lt;/span&gt;old + is_true(expr: &amp;gt;&amp;lt;=),dual(const), expr1^expr2&lt;/font&gt;&lt;/div&gt;&lt;div&gt;&lt;br&gt;&lt;/div&gt;" style="shape=document;whiteSpace=wrap;html=1;align=left;spacing=2;verticalAlign=top;spacingLeft=3;" parent="1" vertex="1">
                    <mxGeometry x="230" y="-860" width="280" height="250" as="geometry"/>
                </mxCell>
                <mxCell id="42" style="edgeStyle=none;html=1;entryX=0.637;entryY=0;entryDx=0;entryDy=0;entryPerimeter=0;" parent="1" source="41" target="35" edge="1">
                    <mxGeometry relative="1" as="geometry"/>
                </mxCell>
                <mxCell id="41" value="timeseries.yml" style="shape=document;whiteSpace=wrap;html=1;" parent="1" vertex="1">
                    <mxGeometry x="550" y="-800" width="125" height="80" as="geometry"/>
                </mxCell>
                <mxCell id="43" value="system.yml&lt;div&gt;---------------------------------------------&lt;/div&gt;&lt;div&gt;property:(id, value) : what ??&lt;/div&gt;" style="shape=document;whiteSpace=wrap;html=1;verticalAlign=top;spacingLeft=3;" parent="1" vertex="1">
                    <mxGeometry x="-150" y="-805" width="285" height="140" as="geometry"/>
                </mxCell>
                <mxCell id="45" style="edgeStyle=none;html=1;entryX=0;entryY=0;entryDx=0;entryDy=0;fontFamily=Helvetica;fontSize=12;fontColor=default;" parent="1" source="43" target="35" edge="1">
                    <mxGeometry relative="1" as="geometry">
                        <mxPoint x="80" y="-470" as="sourcePoint"/>
                    </mxGeometry>
                </mxCell>
                <mxCell id="50" value="&lt;b&gt;&lt;font style=&quot;font-size: 17px;&quot;&gt;SIMULATION_TABLE&lt;/font&gt;&lt;/b&gt;&lt;div&gt;----------------------------------&lt;/div&gt;&lt;div&gt;&lt;ul&gt;&lt;li style=&quot;color: black; scrollbar-color: light-dark(#e2e2e2, #4b4b4b)&lt;br/&gt;&#x9;&#x9;&#x9;&#x9;&#x9;light-dark(#fbfbfb, var(--dark-panel-color)); font-weight: 400; font-size: 12pt;&quot;&gt;&lt;b style=&quot;color: black; background-color: transparent; font-family: Aptos, Aptos_EmbeddedFont, Aptos_MSFontService, Calibri, Helvetica, sans-serif; font-size: 12pt;&quot;&gt;&lt;b style=&quot;scrollbar-color: light-dark(#e2e2e2, #4b4b4b)&lt;br/&gt;&#x9;&#x9;&#x9;&#x9;&#x9;light-dark(#fbfbfb, var(--dark-panel-color));&quot; data-olk-copy-source=&quot;MessageBody&quot;&gt;simulation_ID&lt;/b&gt;:&lt;/b&gt;&lt;/li&gt;&lt;li style=&quot;color: black; scrollbar-color: light-dark(#e2e2e2, #4b4b4b)&lt;br/&gt;&#x9;&#x9;&#x9;&#x9;&#x9;light-dark(#fbfbfb, var(--dark-panel-color)); font-weight: 400; font-size: 12pt;&quot;&gt;&lt;b style=&quot;color: black; background-color: transparent; font-family: Aptos, Aptos_EmbeddedFont, Aptos_MSFontService, Calibri, Helvetica, sans-serif; font-size: 12pt;&quot;&gt;&lt;b style=&quot;scrollbar-color: light-dark(#e2e2e2, #4b4b4b)&lt;br/&gt;&#x9;&#x9;&#x9;&#x9;&#x9;light-dark(#fbfbfb, var(--dark-panel-color));&quot;&gt;block_ID&lt;/b&gt;:&lt;/b&gt;&lt;/li&gt;&lt;li style=&quot;color: black; scrollbar-color: light-dark(#e2e2e2, #4b4b4b)&lt;br/&gt;&#x9;&#x9;&#x9;&#x9;&#x9;light-dark(#fbfbfb, var(--dark-panel-color)); font-weight: 400; font-size: 12pt;&quot;&gt;&lt;b style=&quot;color: black; background-color: transparent; font-family: Aptos, Aptos_EmbeddedFont, Aptos_MSFontService, Calibri, Helvetica, sans-serif; font-size: 12pt;&quot;&gt;&lt;b style=&quot;scrollbar-color: light-dark(#e2e2e2, #4b4b4b)&lt;br/&gt;&#x9;&#x9;&#x9;&#x9;&#x9;light-dark(#fbfbfb, var(--dark-panel-color));&quot;&gt;component_ID&lt;/b&gt;&amp;nbsp;&lt;/b&gt;&lt;/li&gt;&lt;li style=&quot;color: black; scrollbar-color: light-dark(#e2e2e2, #4b4b4b)&lt;br/&gt;&#x9;&#x9;&#x9;&#x9;&#x9;light-dark(#fbfbfb, var(--dark-panel-color)); font-weight: 400; font-size: 12pt;&quot;&gt;&lt;b style=&quot;color: black; background-color: transparent; font-family: Aptos, Aptos_EmbeddedFont, Aptos_MSFontService, Calibri, Helvetica, sans-serif; font-size: 12pt;&quot;&gt;&lt;b style=&quot;scrollbar-color: light-dark(#e2e2e2, #4b4b4b)&lt;br/&gt;&#x9;&#x9;&#x9;&#x9;&#x9;light-dark(#fbfbfb, var(--dark-panel-color));&quot;&gt;output_ID&amp;nbsp;&lt;/b&gt;:&lt;/b&gt;&lt;/li&gt;&lt;li style=&quot;color: black; scrollbar-color: light-dark(#e2e2e2, #4b4b4b)&lt;br/&gt;&#x9;&#x9;&#x9;&#x9;&#x9;light-dark(#fbfbfb, var(--dark-panel-color)); font-weight: 400; font-size: 12pt;&quot;&gt;&lt;b style=&quot;color: black; background-color: transparent; font-family: Aptos, Aptos_EmbeddedFont, Aptos_MSFontService, Calibri, Helvetica, sans-serif; font-size: 12pt;&quot;&gt;&lt;b style=&quot;scrollbar-color: light-dark(#e2e2e2, #4b4b4b)&lt;br/&gt;&#x9;&#x9;&#x9;&#x9;&#x9;light-dark(#fbfbfb, var(--dark-panel-color));&quot;&gt;AbsoluteTimeIndex&amp;nbsp;&lt;/b&gt;:&lt;/b&gt;&lt;/li&gt;&lt;li style=&quot;color: black; scrollbar-color: light-dark(#e2e2e2, #4b4b4b)&lt;br/&gt;&#x9;&#x9;&#x9;&#x9;&#x9;light-dark(#fbfbfb, var(--dark-panel-color)); font-weight: 400; font-size: 12pt;&quot;&gt;&lt;b style=&quot;color: black; background-color: transparent; font-family: Aptos, Aptos_EmbeddedFont, Aptos_MSFontService, Calibri, Helvetica, sans-serif; font-size: 12pt;&quot;&gt;&lt;b style=&quot;scrollbar-color: light-dark(#e2e2e2, #4b4b4b)&lt;br/&gt;&#x9;&#x9;&#x9;&#x9;&#x9;light-dark(#fbfbfb, var(--dark-panel-color));&quot;&gt;BlockTimeIndex&amp;nbsp;&lt;/b&gt;:&amp;nbsp;&lt;/b&gt;&lt;/li&gt;&lt;li style=&quot;color: black; scrollbar-color: light-dark(#e2e2e2, #4b4b4b)&lt;br/&gt;&#x9;&#x9;&#x9;&#x9;&#x9;light-dark(#fbfbfb, var(--dark-panel-color)); font-weight: 400; font-size: 12pt;&quot;&gt;&lt;b style=&quot;color: black; background-color: transparent; font-family: Aptos, Aptos_EmbeddedFont, Aptos_MSFontService, Calibri, Helvetica, sans-serif; font-size: 12pt;&quot;&gt;&lt;b style=&quot;scrollbar-color: light-dark(#e2e2e2, #4b4b4b)&lt;br/&gt;&#x9;&#x9;&#x9;&#x9;&#x9;light-dark(#fbfbfb, var(--dark-panel-color));&quot;&gt;ScenarioIndex&amp;nbsp;&lt;/b&gt;;&lt;/b&gt;&lt;/li&gt;&lt;li style=&quot;color: black; scrollbar-color: light-dark(#e2e2e2, #4b4b4b)&lt;br/&gt;&#x9;&#x9;&#x9;&#x9;&#x9;light-dark(#fbfbfb, var(--dark-panel-color)); font-weight: 400; font-size: 12pt;&quot;&gt;&lt;b style=&quot;color: black; background-color: transparent; font-family: Aptos, Aptos_EmbeddedFont, Aptos_MSFontService, Calibri, Helvetica, sans-serif; font-size: 12pt;&quot;&gt;&lt;b style=&quot;scrollbar-color: light-dark(#e2e2e2, #4b4b4b)&lt;br/&gt;&#x9;&#x9;&#x9;&#x9;&#x9;light-dark(#fbfbfb, var(--dark-panel-color));&quot;&gt;Value&amp;nbsp;&lt;/b&gt;:&lt;/b&gt;&lt;/li&gt;&lt;/ul&gt;&lt;/div&gt;" style="shape=cube;whiteSpace=wrap;html=1;fillColor=#fff2cc;size=10;verticalAlign=top;spacingTop=14;align=left;spacingLeft=16;" parent="1" vertex="1">
                    <mxGeometry x="170" y="570" width="240" height="300" as="geometry"/>
                </mxCell>
                <mxCell id="52" value="&lt;span style=&quot;color: black; font-family: Aptos, Aptos_EmbeddedFont, Aptos_MSFontService, Calibri, Helvetica, sans-serif;&quot; data-olk-copy-source=&quot;MessageBody&quot;&gt;&lt;font style=&quot;line-height: 40%;&quot;&gt;stocke les informations sur le graphe &quot;système&quot;&lt;/font&gt;&lt;/span&gt;&lt;div&gt;&lt;span style=&quot;color: black; font-family: Aptos, Aptos_EmbeddedFont, Aptos_MSFontService, Calibri, Helvetica, sans-serif;&quot; data-olk-copy-source=&quot;MessageBody&quot;&gt;&lt;font style=&quot;line-height: 40%;&quot;&gt;&amp;nbsp;qui seront utiles pour la phase &quot;Business Output&quot;;&lt;/font&gt;&lt;/span&gt;&lt;/div&gt;&lt;div&gt;&lt;span style=&quot;color: black; font-family: Aptos, Aptos_EmbeddedFont, Aptos_MSFontService, Calibri, Helvetica, sans-serif;&quot; data-olk-copy-source=&quot;MessageBody&quot;&gt;&lt;font style=&quot;line-height: 40%;&quot;&gt;&amp;nbsp;informations statiques, indep.&amp;nbsp;&lt;/font&gt;&lt;/span&gt;&lt;/div&gt;&lt;div&gt;&lt;span style=&quot;color: black; font-family: Aptos, Aptos_EmbeddedFont, Aptos_MSFontService, Calibri, Helvetica, sans-serif;&quot; data-olk-copy-source=&quot;MessageBody&quot;&gt;&lt;font style=&quot;line-height: 40%;&quot;&gt;&amp;nbsp;des résultats de simulation&lt;/font&gt;&lt;/span&gt;&lt;/div&gt;" style="ellipse;shape=cloud;whiteSpace=wrap;html=1;shadow=0;dashed=1;strokeColor=default;align=center;verticalAlign=middle;fontFamily=Helvetica;fontSize=5;fontColor=default;fillColor=default;gradientColor=none;" parent="1" vertex="1">
                    <mxGeometry x="510" y="540" width="140" height="90" as="geometry"/>
                </mxCell>
                <mxCell id="57" value="" style="endArrow=none;dashed=1;html=1;fontFamily=Helvetica;fontSize=12;fontColor=default;entryX=0.96;entryY=0.7;entryDx=0;entryDy=0;entryPerimeter=0;" parent="1" source="13" target="52" edge="1">
                    <mxGeometry width="50" height="50" relative="1" as="geometry">
                        <mxPoint x="1710" y="590" as="sourcePoint"/>
                        <mxPoint x="1370" y="510" as="targetPoint"/>
                    </mxGeometry>
                </mxCell>
                <mxCell id="58" value="&lt;span data-olk-copy-source=&quot;MessageBody&quot; style=&quot;color: black; font-family: Aptos, Aptos_EmbeddedFont, Aptos_MSFontService, Calibri, Helvetica, sans-serif;&quot;&gt;&lt;font style=&quot;font-size: 7px;&quot;&gt;stocke les sorties détaillées de simulation, et permet de servir de &quot;mémoire interne&quot; du simulateur pour l&#39;enchainement des blocs.&lt;/font&gt;&lt;/span&gt;" style="ellipse;shape=cloud;whiteSpace=wrap;html=1;shadow=0;dashed=1;strokeColor=default;align=center;verticalAlign=middle;fontFamily=Helvetica;fontSize=5;fontColor=default;fillColor=default;gradientColor=none;spacingLeft=10;spacingRight=10;spacingTop=4;" parent="1" vertex="1">
                    <mxGeometry x="-40" y="560" width="120" height="120" as="geometry"/>
                </mxCell>
                <mxCell id="59" value="" style="endArrow=none;dashed=1;html=1;fontFamily=Helvetica;fontSize=12;fontColor=default;entryX=0.8;entryY=0.8;entryDx=0;entryDy=0;entryPerimeter=0;" parent="1" source="50" target="58" edge="1">
                    <mxGeometry width="50" height="50" relative="1" as="geometry">
                        <mxPoint x="27.25999999999999" y="678.5" as="sourcePoint"/>
                        <mxPoint x="19.999999999999773" y="644.44" as="targetPoint"/>
                    </mxGeometry>
                </mxCell>
                <mxCell id="62" value="&lt;font style=&quot;font-size: 13px;&quot; face=&quot;Aptos, Aptos_EmbeddedFont, Aptos_MSFontService, Calibri, Helvetica, sans-serif&quot;&gt;1ère sorties&lt;/font&gt;&lt;div&gt;&lt;font style=&quot;font-size: 13px;&quot; face=&quot;Aptos, Aptos_EmbeddedFont, Aptos_MSFontService, Calibri, Helvetica, sans-serif&quot;&gt;&quot;brutes&quot;&lt;/font&gt;&lt;/div&gt;&lt;div&gt;&lt;font style=&quot;font-size: 13px;&quot; face=&quot;Aptos, Aptos_EmbeddedFont, Aptos_MSFontService, Calibri, Helvetica, sans-serif&quot;&gt;&amp;nbsp;à usage divers&lt;/font&gt;&lt;/div&gt;" style="ellipse;shape=cloud;whiteSpace=wrap;html=1;shadow=0;dashed=1;strokeColor=default;align=center;verticalAlign=middle;fontFamily=Helvetica;fontSize=5;fontColor=default;fillColor=default;gradientColor=none;" parent="1" vertex="1">
                    <mxGeometry x="200" y="230" width="140" height="90" as="geometry"/>
                </mxCell>
                <mxCell id="63" value="" style="endArrow=none;dashed=1;html=1;fontFamily=Helvetica;fontSize=12;fontColor=default;" parent="1" source="6" target="62" edge="1">
                    <mxGeometry width="50" height="50" relative="1" as="geometry">
                        <mxPoint x="230" y="397" as="sourcePoint"/>
                        <mxPoint x="270" y="330" as="targetPoint"/>
                    </mxGeometry>
                </mxCell>
                <mxCell id="64" value="&lt;font style=&quot;font-size: 14px;&quot; face=&quot;Aptos, Aptos_EmbeddedFont, Aptos_MSFontService, Calibri, Helvetica, sans-serif&quot;&gt;Sorties&lt;/font&gt;&lt;div&gt;&lt;font style=&quot;font-size: 14px;&quot; face=&quot;Aptos, Aptos_EmbeddedFont, Aptos_MSFontService, Calibri, Helvetica, sans-serif&quot;&gt;&amp;nbsp;utilisateur métier&lt;/font&gt;&lt;/div&gt;" style="ellipse;shape=cloud;whiteSpace=wrap;html=1;shadow=0;dashed=1;strokeColor=default;align=center;verticalAlign=middle;fontFamily=Helvetica;fontSize=8;fontColor=default;fillColor=default;gradientColor=none;" parent="1" vertex="1">
                    <mxGeometry x="790" y="220" width="140" height="90" as="geometry"/>
                </mxCell>
                <mxCell id="65" value="" style="endArrow=none;dashed=1;html=1;fontFamily=Helvetica;fontSize=12;fontColor=default;" parent="1" source="8" target="64" edge="1">
                    <mxGeometry width="50" height="50" relative="1" as="geometry">
                        <mxPoint x="942" y="305" as="sourcePoint"/>
                        <mxPoint x="860" y="270" as="targetPoint"/>
                    </mxGeometry>
                </mxCell>
                <mxCell id="112" value="&lt;div&gt;&lt;font face=&quot;Droid Sans Mono, monospace, monospace&quot; color=&quot;#cccccc&quot;&gt;&lt;span style=&quot;font-size: 14px; white-space: pre; background-color: rgb(31, 31, 31);&quot;&gt;&lt;br&gt;&lt;/span&gt;&lt;/font&gt;&lt;/div&gt;&lt;ul&gt;&lt;li&gt;problem: OptimizationProblem&lt;/li&gt;&lt;li&gt;_components: set of (class Component):&lt;/li&gt;&lt;ul&gt;&lt;li&gt;set of (class: variable) :&lt;/li&gt;&lt;ul&gt;&lt;li&gt;variable : timescenarioIdx -&amp;gt; value&lt;/li&gt;&lt;/ul&gt;&lt;/ul&gt;&lt;/ul&gt;" style="rounded=0;whiteSpace=wrap;html=1;strokeColor=#666666;strokeWidth=1;fillColor=#f5f5f5;align=left;fontColor=#333333;" parent="1" vertex="1">
                    <mxGeometry x="-500" y="810" width="360" height="140" as="geometry"/>
                </mxCell>
                <mxCell id="122" value="&lt;span style=&quot;color: rgb(0, 0, 0); font-family: Helvetica; font-size: 14px; font-style: normal; font-variant-ligatures: normal; font-variant-caps: normal; font-weight: 700; letter-spacing: normal; orphans: 2; text-align: center; text-indent: 0px; text-transform: none; widows: 2; word-spacing: 0px; -webkit-text-stroke-width: 0px; white-space: normal; background-color: rgb(251, 251, 251); text-decoration-thickness: initial; text-decoration-style: initial; text-decoration-color: initial; display: inline !important; float: none;&quot;&gt;class OutputValues&lt;/span&gt;&lt;div&gt;&lt;span style=&quot;color: rgb(0, 0, 0); font-family: Helvetica; font-size: 14px; font-style: normal; font-variant-ligatures: normal; font-variant-caps: normal; font-weight: 700; letter-spacing: normal; orphans: 2; text-align: center; text-indent: 0px; text-transform: none; widows: 2; word-spacing: 0px; -webkit-text-stroke-width: 0px; white-space: normal; background-color: rgb(251, 251, 251); text-decoration-thickness: initial; text-decoration-style: initial; text-decoration-color: initial; display: inline !important; float: none;&quot;&gt;------------------------------------------------------------------&lt;/span&gt;&lt;/div&gt;" style="text;whiteSpace=wrap;html=1;fontFamily=Helvetica;fontSize=12;fontColor=default;" parent="112" vertex="1">
                    <mxGeometry width="328.60465116279073" height="37.33" as="geometry"/>
                </mxCell>
                <mxCell id="126" value="" style="rounded=0;whiteSpace=wrap;html=1;strokeColor=#000000;strokeWidth=1;fillColor=#ffffff;" parent="1" vertex="1">
                    <mxGeometry x="300" y="1130" width="1000" height="250" as="geometry"/>
                </mxCell>
                <mxCell id="127" value="block" style="rounded=0;whiteSpace=wrap;html=1;strokeColor=#000000;strokeWidth=1;fillColor=#dae8fc;fontStyle=1;align=center;verticalAlign=middle;" parent="126" vertex="1">
                    <mxGeometry width="142.85714285714283" height="31.250000000000004" as="geometry"/>
                </mxCell>
                <mxCell id="128" value="component" style="rounded=0;whiteSpace=wrap;html=1;strokeColor=#000000;strokeWidth=1;fillColor=#dae8fc;fontStyle=1;align=center;verticalAlign=middle;" parent="126" vertex="1">
                    <mxGeometry x="142.85714285714283" width="171.42857142857142" height="31.250000000000004" as="geometry"/>
                </mxCell>
                <mxCell id="129" value="output id" style="rounded=0;whiteSpace=wrap;html=1;strokeColor=#000000;strokeWidth=1;fillColor=#dae8fc;fontStyle=1;align=center;verticalAlign=middle;" parent="126" vertex="1">
                    <mxGeometry x="314.2857142857143" width="171.42857142857142" height="31.250000000000004" as="geometry"/>
                </mxCell>
                <mxCell id="130" value="absolute_time_index" style="rounded=0;whiteSpace=wrap;html=1;strokeColor=#000000;strokeWidth=1;fillColor=#dae8fc;fontStyle=1;align=center;verticalAlign=middle;fontSize=10;" parent="126" vertex="1">
                    <mxGeometry x="485.71428571428567" width="171.42857142857142" height="31.250000000000004" as="geometry"/>
                </mxCell>
                <mxCell id="131" value="block_time_index" style="rounded=0;whiteSpace=wrap;html=1;strokeColor=#000000;strokeWidth=1;fillColor=#dae8fc;fontStyle=1;align=center;verticalAlign=middle;fontSize=10;" parent="126" vertex="1">
                    <mxGeometry x="657.14" width="152.86" height="31.25" as="geometry"/>
                </mxCell>
                <mxCell id="132" value="scenario_index" style="rounded=0;whiteSpace=wrap;html=1;strokeColor=#000000;strokeWidth=1;fillColor=#dae8fc;fontStyle=1;align=center;verticalAlign=middle;" parent="126" vertex="1">
                    <mxGeometry x="800" width="114.29" height="31.25" as="geometry"/>
                </mxCell>
                <mxCell id="133" value="value" style="rounded=0;whiteSpace=wrap;html=1;strokeColor=#000000;strokeWidth=1;fillColor=#dae8fc;fontStyle=1;align=center;verticalAlign=middle;" parent="126" vertex="1">
                    <mxGeometry x="914.2857142857142" width="85.71428571428571" height="31.250000000000004" as="geometry"/>
                </mxCell>
                <mxCell id="134" value="" style="rounded=0;whiteSpace=wrap;html=1;strokeColor=#000000;strokeWidth=1;fillColor=#ffffff;" parent="126" vertex="1">
                    <mxGeometry y="31.250000000000004" width="142.85714285714283" height="31.250000000000004" as="geometry"/>
                </mxCell>
                <mxCell id="135" value="" style="rounded=0;whiteSpace=wrap;html=1;strokeColor=#000000;strokeWidth=1;fillColor=#ffffff;" parent="126" vertex="1">
                    <mxGeometry x="142.85714285714283" y="31.250000000000004" width="171.42857142857142" height="31.250000000000004" as="geometry"/>
                </mxCell>
                <mxCell id="136" value="" style="rounded=0;whiteSpace=wrap;html=1;strokeColor=#000000;strokeWidth=1;fillColor=#ffffff;" parent="126" vertex="1">
                    <mxGeometry x="314.2857142857143" y="31.250000000000004" width="171.42857142857142" height="31.250000000000004" as="geometry"/>
                </mxCell>
                <mxCell id="137" value="" style="rounded=0;whiteSpace=wrap;html=1;strokeColor=#000000;strokeWidth=1;fillColor=#ffffff;" parent="126" vertex="1">
                    <mxGeometry x="485.71428571428567" y="31.250000000000004" width="171.42857142857142" height="31.250000000000004" as="geometry"/>
                </mxCell>
                <mxCell id="138" value="" style="rounded=0;whiteSpace=wrap;html=1;strokeColor=#000000;strokeWidth=1;fillColor=#ffffff;" parent="126" vertex="1">
                    <mxGeometry x="657.14" y="31.25" width="142.86" height="31.25" as="geometry"/>
                </mxCell>
                <mxCell id="139" value="" style="rounded=0;whiteSpace=wrap;html=1;strokeColor=#000000;strokeWidth=1;fillColor=#ffffff;" parent="126" vertex="1">
                    <mxGeometry x="800" y="31.25" width="114.29" height="31.25" as="geometry"/>
                </mxCell>
                <mxCell id="140" value="" style="rounded=0;whiteSpace=wrap;html=1;strokeColor=#000000;strokeWidth=1;fillColor=#ffffff;" parent="126" vertex="1">
                    <mxGeometry x="914.2857142857142" y="31.250000000000004" width="85.71428571428571" height="31.250000000000004" as="geometry"/>
                </mxCell>
                <mxCell id="141" value="1" style="rounded=0;whiteSpace=wrap;html=1;strokeColor=#000000;strokeWidth=1;fillColor=#eef2f7;align=center;verticalAlign=middle;" parent="126" vertex="1">
                    <mxGeometry y="197.91666666666669" width="142.85714285714283" height="31.250000000000004" as="geometry"/>
                </mxCell>
                <mxCell id="142" value="COMP_ID" style="rounded=0;whiteSpace=wrap;html=1;strokeColor=#000000;strokeWidth=1;fillColor=#eef2f7;align=center;verticalAlign=middle;" parent="126" vertex="1">
                    <mxGeometry x="142.85714285714283" y="197.91666666666669" width="171.42857142857142" height="31.250000000000004" as="geometry"/>
                </mxCell>
                <mxCell id="143" value="variable_ID" style="rounded=0;whiteSpace=wrap;html=1;strokeColor=#000000;strokeWidth=1;fillColor=#eef2f7;align=center;verticalAlign=middle;" parent="126" vertex="1">
                    <mxGeometry x="314.2857142857143" y="197.91666666666669" width="171.42857142857142" height="31.250000000000004" as="geometry"/>
                </mxCell>
                <mxCell id="144" value="None" style="rounded=0;whiteSpace=wrap;html=1;strokeColor=#000000;strokeWidth=1;fillColor=#eef2f7;align=center;verticalAlign=middle;" parent="126" vertex="1">
                    <mxGeometry x="485.71428571428567" y="197.91666666666669" width="171.42857142857142" height="31.250000000000004" as="geometry"/>
                </mxCell>
                <mxCell id="145" value="None" style="rounded=0;whiteSpace=wrap;html=1;strokeColor=#000000;strokeWidth=1;fillColor=#eef2f7;align=center;verticalAlign=middle;" parent="126" vertex="1">
                    <mxGeometry x="657.14" y="197.92" width="152.86" height="31.25" as="geometry"/>
                </mxCell>
                <mxCell id="146" value="1" style="rounded=0;whiteSpace=wrap;html=1;strokeColor=#000000;strokeWidth=1;fillColor=#eef2f7;align=center;verticalAlign=middle;" parent="126" vertex="1">
                    <mxGeometry x="810" y="197.92" width="104.29" height="31.25" as="geometry"/>
                </mxCell>
                <mxCell id="147" value="12345.67" style="rounded=0;whiteSpace=wrap;html=1;strokeColor=#000000;strokeWidth=1;fillColor=#eef2f7;align=center;verticalAlign=middle;" parent="126" vertex="1">
                    <mxGeometry x="914.2857142857142" y="197.91666666666669" width="85.71428571428571" height="31.250000000000004" as="geometry"/>
                </mxCell>
                <mxCell id="149" value="format:" style="text;html=1;align=center;verticalAlign=middle;resizable=0;points=[];autosize=1;strokeColor=none;fillColor=none;fontFamily=Helvetica;fontSize=12;fontColor=default;" parent="1" vertex="1">
                    <mxGeometry x="130" y="1180" width="60" height="30" as="geometry"/>
                </mxCell>
                <mxCell id="150" value="" style="shape=actor;whiteSpace=wrap;html=1;shadow=0;dashed=1;strokeColor=default;align=center;verticalAlign=middle;fontFamily=Helvetica;fontSize=12;fontColor=default;fillColor=default;gradientColor=none;" parent="1" vertex="1">
                    <mxGeometry x="-620" y="970" width="80" height="173" as="geometry"/>
                </mxCell>
                <mxCell id="151" value="Q: Est ce que c&#39;est utilisé?&lt;div&gt;Est ce que ça suffit ? on l&#39;étant?&amp;nbsp;&lt;div&gt;on crée un nouveau class?&lt;/div&gt;&lt;/div&gt;" style="text;html=1;align=center;verticalAlign=middle;resizable=0;points=[];autosize=1;strokeColor=none;fillColor=none;fontFamily=Helvetica;fontSize=12;fontColor=default;" parent="1" vertex="1">
                    <mxGeometry x="-540" y="1009" width="200" height="60" as="geometry"/>
                </mxCell>
                <mxCell id="152" value="Rep. ?&amp;nbsp;&lt;br&gt;Pourquoi pas l&#39;étendre,&amp;nbsp;&lt;div&gt;&lt;br/&gt;&lt;/div&gt;" style="text;html=1;align=center;verticalAlign=middle;resizable=0;points=[];autosize=1;strokeColor=none;fillColor=none;fontFamily=Helvetica;fontSize=12;fontColor=default;" parent="1" vertex="1">
                    <mxGeometry x="-505" y="1120" width="150" height="60" as="geometry"/>
                </mxCell>
                <mxCell id="153" value="&lt;div&gt;&lt;font face=&quot;Droid Sans Mono, monospace, monospace&quot; color=&quot;#cccccc&quot;&gt;&lt;span style=&quot;font-size: 14px; white-space: pre; background-color: rgb(31, 31, 31);&quot;&gt;&lt;br&gt;&lt;/span&gt;&lt;/font&gt;&lt;/div&gt;&lt;ul&gt;&lt;li&gt;problem: OptimizationProblem&lt;/li&gt;&lt;li&gt;_components: set of (class Component):&lt;/li&gt;&lt;ul&gt;&lt;li&gt;set of (class: variable) :&lt;/li&gt;&lt;ul&gt;&lt;li&gt;variable : timescenarioIdx -&amp;gt; value&lt;/li&gt;&lt;/ul&gt;&lt;/ul&gt;&lt;li&gt;&lt;span style=&quot;background-color: transparent;&quot;&gt;exptraOutputEval() ...&lt;/span&gt;&lt;/li&gt;&lt;/ul&gt;" style="rounded=0;whiteSpace=wrap;html=1;strokeColor=#82b366;strokeWidth=1;fillColor=#d5e8d4;align=left;" parent="1" vertex="1">
                    <mxGeometry x="-500" y="1180" width="360" height="210" as="geometry"/>
                </mxCell>
                <mxCell id="154" value="&lt;span style=&quot;color: rgb(0, 0, 0); font-family: Helvetica; font-size: 14px; font-style: normal; font-variant-ligatures: normal; font-variant-caps: normal; font-weight: 700; letter-spacing: normal; orphans: 2; text-align: center; text-indent: 0px; text-transform: none; widows: 2; word-spacing: 0px; -webkit-text-stroke-width: 0px; white-space: normal; background-color: rgb(251, 251, 251); text-decoration-thickness: initial; text-decoration-style: initial; text-decoration-color: initial; display: inline !important; float: none;&quot;&gt;class OutputValues&lt;/span&gt;&lt;div&gt;&lt;span style=&quot;color: rgb(0, 0, 0); font-family: Helvetica; font-size: 14px; font-style: normal; font-variant-ligatures: normal; font-variant-caps: normal; font-weight: 700; letter-spacing: normal; orphans: 2; text-align: center; text-indent: 0px; text-transform: none; widows: 2; word-spacing: 0px; -webkit-text-stroke-width: 0px; white-space: normal; background-color: rgb(251, 251, 251); text-decoration-thickness: initial; text-decoration-style: initial; text-decoration-color: initial; display: inline !important; float: none;&quot;&gt;------------------------------------------------------------------&lt;/span&gt;&lt;/div&gt;" style="text;whiteSpace=wrap;html=1;fontFamily=Helvetica;fontSize=12;fontColor=default;" parent="153" vertex="1">
                    <mxGeometry width="328.60465116279073" height="55.995" as="geometry"/>
                </mxCell>
                <mxCell id="160" style="edgeStyle=none;html=1;" parent="1" source="156" edge="1">
                    <mxGeometry relative="1" as="geometry">
                        <mxPoint x="-1190" y="1285" as="targetPoint"/>
                    </mxGeometry>
                </mxCell>
                <mxCell id="156" value="&lt;div&gt;&lt;font face=&quot;Droid Sans Mono, monospace, monospace&quot; color=&quot;#cccccc&quot;&gt;&lt;span style=&quot;font-size: 14px; white-space: pre; background-color: rgb(31, 31, 31);&quot;&gt;&lt;br&gt;&lt;/span&gt;&lt;/font&gt;&lt;/div&gt;&lt;ul&gt;&lt;li&gt;&lt;span style=&quot;background-color: transparent;&quot;&gt;Simulation_talbe: dt pandas&lt;/span&gt;&lt;br&gt;&lt;/li&gt;&lt;li&gt;SimulationTableFill(&lt;u&gt;OutputValues&lt;/u&gt; or ProblemOptim ?)&amp;nbsp;&lt;/li&gt;&lt;ul&gt;&lt;li&gt;&lt;br&gt;&lt;/li&gt;&lt;li&gt;expr ... bla bla les autres&lt;/li&gt;&lt;/ul&gt;&lt;li&gt;GetSimuTable() =&amp;gt; SimTable&lt;/li&gt;&lt;li&gt;write_csv()&amp;nbsp;&lt;/li&gt;&lt;/ul&gt;" style="rounded=0;whiteSpace=wrap;html=1;strokeColor=#82b366;strokeWidth=1;fillColor=#d5e8d4;align=left;" parent="1" vertex="1">
                    <mxGeometry x="-1110" y="1180" width="360" height="210" as="geometry"/>
                </mxCell>
                <mxCell id="157" value="&lt;span style=&quot;color: rgb(0, 0, 0); font-family: Helvetica; font-size: 14px; font-style: normal; font-variant-ligatures: normal; font-variant-caps: normal; font-weight: 700; letter-spacing: normal; orphans: 2; text-align: center; text-indent: 0px; text-transform: none; widows: 2; word-spacing: 0px; -webkit-text-stroke-width: 0px; white-space: normal; background-color: rgb(251, 251, 251); text-decoration-thickness: initial; text-decoration-style: initial; text-decoration-color: initial; float: none; display: inline !important;&quot;&gt;class SImulationTable&amp;nbsp;&lt;/span&gt;&lt;div&gt;&lt;span style=&quot;color: rgb(0, 0, 0); font-family: Helvetica; font-size: 14px; font-style: normal; font-variant-ligatures: normal; font-variant-caps: normal; font-weight: 700; letter-spacing: normal; orphans: 2; text-align: center; text-indent: 0px; text-transform: none; widows: 2; word-spacing: 0px; -webkit-text-stroke-width: 0px; white-space: normal; background-color: rgb(251, 251, 251); text-decoration-thickness: initial; text-decoration-style: initial; text-decoration-color: initial; float: none; display: inline !important;&quot;&gt;-----------------------------------------------------------------&lt;/span&gt;&lt;/div&gt;" style="text;whiteSpace=wrap;html=1;fontFamily=Helvetica;fontSize=12;fontColor=default;" parent="156" vertex="1">
                    <mxGeometry width="328.60465116279073" height="55.995" as="geometry"/>
                </mxCell>
                <mxCell id="158" value="&lt;div&gt;&lt;br&gt;&lt;/div&gt;&lt;ul&gt;&lt;li&gt;write_csv()&amp;nbsp;&lt;/li&gt;&lt;/ul&gt;" style="rounded=0;whiteSpace=wrap;html=1;strokeColor=#82b366;strokeWidth=1;fillColor=#d5e8d4;align=left;" parent="1" vertex="1">
                    <mxGeometry x="-1130" y="1850" width="360" height="210" as="geometry"/>
                </mxCell>
                <mxCell id="159" value="&lt;span style=&quot;color: rgb(0, 0, 0); font-family: Helvetica; font-size: 14px; font-style: normal; font-variant-ligatures: normal; font-variant-caps: normal; font-weight: 700; letter-spacing: normal; orphans: 2; text-align: center; text-indent: 0px; text-transform: none; widows: 2; word-spacing: 0px; -webkit-text-stroke-width: 0px; white-space: normal; background-color: rgb(251, 251, 251); text-decoration-thickness: initial; text-decoration-style: initial; text-decoration-color: initial; display: inline !important; float: none;&quot;&gt;class SImulationTableWriter (abstract: csv, etc.)&lt;/span&gt;&lt;div&gt;&lt;span style=&quot;color: rgb(0, 0, 0); font-family: Helvetica; font-size: 14px; font-style: normal; font-variant-ligatures: normal; font-variant-caps: normal; font-weight: 700; letter-spacing: normal; orphans: 2; text-align: center; text-indent: 0px; text-transform: none; widows: 2; word-spacing: 0px; -webkit-text-stroke-width: 0px; white-space: normal; background-color: rgb(251, 251, 251); text-decoration-thickness: initial; text-decoration-style: initial; text-decoration-color: initial; display: inline !important; float: none;&quot;&gt;------------------------------------------------------------------&lt;/span&gt;&lt;/div&gt;" style="text;whiteSpace=wrap;html=1;fontFamily=Helvetica;fontSize=12;fontColor=default;" parent="158" vertex="1">
                    <mxGeometry width="328.60465116279073" height="55.995" as="geometry"/>
                </mxCell>
                <mxCell id="161" value="may depends on OutputValues&lt;div&gt;&lt;br&gt;&lt;/div&gt;&lt;div&gt;&lt;br&gt;&lt;/div&gt;&lt;div&gt;pour linstant il y a que &lt;u&gt;var&lt;/u&gt; :&amp;gt; faire pareil pour le port fields et params, obj.&lt;/div&gt;&lt;div&gt;&lt;ul style=&quot;color: rgb(0, 0, 0); scrollbar-color: light-dark(#e2e2e2, #4b4b4b)&lt;br/&gt;&#x9;&#x9;&#x9;&#x9;&#x9;light-dark(#fbfbfb, var(--dark-panel-color)); text-align: left;&quot;&gt;&lt;li style=&quot;scrollbar-color: light-dark(#e2e2e2, #4b4b4b)&lt;br/&gt;&#x9;&#x9;&#x9;&#x9;&#x9;light-dark(#fbfbfb, var(--dark-panel-color));&quot;&gt;exptraOutputEval() ?? comment&lt;/li&gt;&lt;/ul&gt;&lt;/div&gt;" style="whiteSpace=wrap;html=1;" parent="1" vertex="1">
                    <mxGeometry x="-1420" y="1250" width="240" height="180" as="geometry"/>
                </mxCell>
            </root>
        </mxGraphModel>
    </diagram>
</mxfile>